# xmcd
#
# Track frame offsets:
#	150
#	15176
#	30825
#	45767
#	64095
#	81286
#	101973
#	115342
#	135717
#	150610
#	167562
#	179802
#
# Disc length: 2645 seconds
#
# Revision: 0
# Processed by: cddbd v1.5.2PL0 Copyright (c) Steve Scherf et al.
# Submitted via: EasyCDDAExtractor 11.0.3.1
#
DISCID=8e0a530c
DTITLE=Pirates Of The Mississippi - Heaven And A Dixie Night
DYEAR=2006
DGENRE=Country
TTITLE0=Drinkin' Money
TTITLE1=Kickin' It Up
TTITLE2=Heaven And A Dixie Night
TTITLE3=Fish Bait
TTITLE4=Is That Country Or What
TTITLE5=When Love Is Meant To Be
TTITLE6=Nickel's Worth Of Your Love
TTITLE7=Rollin'
TTITLE8=I Wouldn't Change A Thing
TTITLE9=Me
TTITLE10=Gravy
TTITLE11=A Snowman In Birmingham
EXTD=
EXTT0=
EXTT1=
EXTT2=
EXTT3=
EXTT4=
EXTT5=
EXTT6=
EXTT7=
EXTT8=
EXTT9=
EXTT10=
EXTT11=
PLAYORDER=
